PathFileType	4	(X/Y/Z)	C:\Users\WrightLab\Desktop\Jo\P2_Trial40.trc
DataRate	CameraRate	NumFrames	NumMarkers	Units	OrigDataRate	OrigDataStartFrame	OrigNumFrames
100.00	100.00	       10	19	mm	100.00	60	       479
Frame#	Time	Headset_Front			Headset_Back			Headset_Left			Headset_Right			Left_Shoulder			Right_Shoulder			Sternum			C7			Left Elbow			Right Elbow			Left Wrist			Right Wrist			Left ASIS			Right ASIS			S2			Left Knee			Right Knee			Left Ankle			Right Ankle			
		X1	Y1	Z1	X2	Y2	Z2	X3	Y3	Z3	X4	Y4	Z4	X5	Y5	Z5	X6	Y6	Z6	X7	Y7	Z7	X8	Y8	Z8	X9	Y9	Z9	X10	Y10	Z10	X11	Y11	Z11	X12	Y12	Z12	X13	Y13	Z13	X14	Y14	Z14	X15	Y15	Z15	X16	Y16	Z16	X17	Y17	Z17	X18	Y18	Z18	X19	Y19	Z19	

60	0.590	-789.62653	1538.17798	-716.70050	-372.18350	808.12012	-860.50659										-848.89557	1384.43408	-889.65356	-708.77264	1276.36194	-778.70825	-675.59143	1386.77026	-957.24646	-408.95316	1049.40967	-815.21765	-965.94946	1067.26892	-933.63245				-1054.56543	841.85992	-853.17249	-659.83722	972.71045	-740.66272	-782.54602	952.64764	-789.41522				-633.33783	437.09070	-680.37946	-815.84717	501.78885	-1041.16577	-681.80627	91.84334	-629.71106	-582.89081	1070.74646	-1355.89502	
61	0.600	-789.71454	1540.63428	-707.09015	-375.60397	807.11176	-844.81500							-533.71960	1403.61804	-789.95624	-849.72357	1387.66602	-880.40540	-709.78467	1279.75635	-769.37109	-676.59985	1388.97168	-947.92554	-409.05093	1051.56836	-798.13098	-964.78595	1068.89783	-923.60852				-1050.63306	840.00940	-847.11829	-661.82715	975.49084	-729.32867	-784.84485	955.60797	-778.21167				-630.29742	439.04453	-673.76459	-818.83618	500.30032	-1017.61334	-681.78418	91.57212	-629.53345	-583.59100	1073.34985	-1347.33032	
62	0.610	-789.81421	1543.24622	-697.63116	-379.41818	807.88873	-827.44708							-533.76398	1405.79382	-782.10730	-851.06146	1390.16772	-870.75299	-711.78845	1283.19324	-759.82007	-677.74091	1390.91504	-938.73859	-408.76785	1053.85315	-786.22357	-963.25134	1070.47510	-913.83160				-1046.37854	839.19006	-842.18201	-663.41223	977.23151	-717.89581	-786.01538	958.73065	-769.41162				-625.83667	438.86917	-666.67603	-821.95685	499.21402	-996.22797	-680.68494	92.86430	-629.22742	-584.84167	1074.36584	-1337.40259	
63	0.620	-789.52747	1546.54688	-688.19318	-383.20303	809.15240	-811.63995							-534.54657	1408.00781	-773.10553	-852.22571	1392.77112	-860.97070	-712.34644	1286.31494	-750.90991	-678.74597	1393.06653	-929.48376	-410.52393	1055.59058	-774.32440	-961.66614	1071.53882	-903.84558				-1041.70007	837.43286	-836.45313	-665.15027	979.79144	-707.07227	-787.68896	961.07147	-758.97754				-622.59595	439.29926	-660.15961	-825.30640	497.95883	-974.98364	-679.68793	93.82858	-628.60388	-586.02448	1075.87170	-1327.39087	
64	0.630	-789.68011	1549.55066	-678.60345	-387.14856	810.89081	-790.64417							-534.99683	1410.18823	-764.78442	-853.09985	1395.84033	-852.02289	-714.92041	1290.24902	-741.22131	-679.77429	1395.14246	-920.34393	-412.90067	1057.43555	-761.08380	-959.64496	1072.84973	-894.50958				-1037.16797	836.65540	-831.21515	-666.20624	982.44000	-696.59564	-789.14142	963.86713	-748.04523				-618.80035	438.65869	-654.21613	-830.15656	496.92014	-953.22437	-679.18671	94.32240	-628.71014	-587.14581	1077.68750	-1317.47705	
65	0.640	-789.07294	1551.19116	-668.93530	-391.26389	811.88898	-773.83173							-535.48834	1412.72009	-757.01971	-854.01599	1398.24548	-842.63287	-714.01459	1291.91162	-732.41156	-680.75812	1397.25867	-911.25970	-414.31366	1059.62463	-749.03906	-957.61597	1073.72461	-885.54376	-609.34668	918.05731	-956.04431	-1032.52136	836.33783	-825.92609	-667.69934	984.44031	-689.62183	-790.47925	966.88226	-739.26306				-614.61090	438.52005	-647.87115	-834.51361	496.39001	-931.42175	-679.15344	94.35554	-628.70679				
66	0.650	-790.04846	1554.47986	-659.70050	-395.09564	814.12695	-756.86279							-535.85535	1414.63818	-747.82813	-855.28290	1400.96021	-833.06146	-714.39819	1294.60352	-722.64252	-681.75446	1399.21387	-902.08704	-416.03946	1062.02722	-737.26361	-955.25861	1074.84705	-876.97174				-1027.80591	835.82446	-821.02850	-668.83270	987.06708	-678.10992	-792.62726	969.63116	-728.48315				-609.86731	438.17966	-643.24115	-838.32678	497.73151	-909.27448	-678.93866	93.52468	-629.25482				
67	0.660	-790.14972	1556.60510	-650.34454	-399.30185	816.67798	-735.63660							-536.46307	1418.04041	-742.73590	-856.25122	1403.63306	-824.17542	-714.82458	1297.05432	-712.93884	-682.68768	1401.08203	-893.18500	-418.57074	1064.35242	-725.68195	-952.90576	1075.94580	-868.32739				-1023.21619	835.79291	-815.87128	-669.97028	988.88873	-668.42920	-793.58832	972.37817	-718.58466				-606.95361	437.20963	-639.03284	-843.02582	499.43536	-887.03760	-679.19965	92.92671	-629.61664				
68	0.670	-790.54498	1559.04102	-640.91388	-403.18625	819.24280	-718.71582							-537.08484	1419.73962	-732.22681	-856.84521	1405.49182	-814.18921	-716.58478	1300.35095	-704.22003	-683.67603	1402.75830	-883.89490	-419.70169	1066.98828	-712.31940	-950.43311	1077.41589	-860.21692				-1019.16858	835.97302	-810.67419	-669.56519	991.95374	-656.84192	-794.10602	975.26190	-706.91608				-603.19562	435.65155	-634.97021	-848.91412	503.25937	-864.30603	-677.61487	91.22657	-629.78101				
69	0.680	-790.40930	1560.91724	-631.91309	-408.25552	822.58240	-698.32440							-537.37885	1422.26086	-725.11853	-857.65210	1408.10339	-804.94806	-715.93677	1301.97644	-695.27539	-684.52948	1404.72314	-874.56403	-421.52722	1069.55200	-700.16791	-947.99585	1078.74414	-851.68890				-1014.81580	836.16138	-806.09613	-669.52533	994.78729	-648.94781	-794.84436	977.98505	-695.33380	-617.96399	926.87054	-916.65491	-598.57672	435.09189	-631.18524	-854.67816	507.05823	-841.89429	-675.57306	89.77796	-629.85352				
